<svg width="46" height="45" viewBox="0 0 46 45" fill="none" xmlns="http://www.w3.org/2000/svg">
<path d="M13.648 22.088C13.648 23.9867 14.032 25.7253 14.8 27.304C15.568 28.8613 16.6454 30.1093 18.032 31.048C19.4187 31.9653 21.04 32.424 22.896 32.424C24.7734 32.424 26.4054 31.9653 27.792 31.048C29.1787 30.1093 30.256 28.8613 31.024 27.304C31.792 25.7253 32.176 23.9867 32.176 22.088C32.176 20.1893 31.792 18.4613 31.024 16.904C30.256 15.3467 29.1787 14.0987 27.792 13.16C26.4054 12.2213 24.7734 11.752 22.896 11.752C21.04 11.752 19.4187 12.2213 18.032 13.16C16.6454 14.0987 15.568 15.3467 14.8 16.904C14.032 18.4613 13.648 20.1893 13.648 22.088ZM0.720028 22.088C0.720028 19.016 1.2747 16.1573 2.38403 13.512C3.5147 10.8453 5.0827 8.51999 7.08803 6.53599C9.09336 4.55199 11.44 3.00532 14.128 1.89599C16.8374 0.786654 19.76 0.231987 22.896 0.231987C26.096 0.231987 29.04 0.786654 31.728 1.89599C34.4374 3.00532 36.784 4.55199 38.768 6.53599C40.7734 8.51999 42.32 10.8453 43.408 13.512C44.5174 16.1573 45.072 19.016 45.072 22.088C45.072 25.1813 44.5387 28.0613 43.472 30.728C42.4054 33.3733 40.88 35.6987 38.896 37.704C36.9334 39.688 34.5974 41.2347 31.888 42.344C29.1787 43.4533 26.1814 44.008 22.896 44.008C19.5254 44.008 16.4747 43.4533 13.744 42.344C11.0347 41.2347 8.70936 39.688 6.76803 37.704C4.8267 35.6987 3.33336 33.3733 2.28803 30.728C1.2427 28.0613 0.720028 25.1813 0.720028 22.088Z" fill="#BDFF00"/>
</svg>
