<svg width="74" height="76" viewBox="0 0 74 76" fill="none" xmlns="http://www.w3.org/2000/svg">
<path d="M3.00003 2.99999H15.416V34.488H29.848V45.24H3.00003V2.99999Z" fill="#BDFF00"/>
<path d="M38.648 40.088C38.648 41.9867 39.032 43.7253 39.8 45.304C40.568 46.8613 41.6454 48.1093 43.032 49.048C44.4187 49.9653 46.04 50.424 47.896 50.424C49.7734 50.424 51.4054 49.9653 52.792 49.048C54.1787 48.1093 55.256 46.8613 56.024 45.304C56.792 43.7253 57.176 41.9867 57.176 40.088C57.176 38.1893 56.792 36.4613 56.024 34.904C55.256 33.3467 54.1787 32.0987 52.792 31.16C51.4054 30.2213 49.7734 29.752 47.896 29.752C46.04 29.752 44.4187 30.2213 43.032 31.16C41.6454 32.0987 40.568 33.3467 39.8 34.904C39.032 36.4613 38.648 38.1893 38.648 40.088ZM25.72 40.088C25.72 37.016 26.2747 34.1573 27.384 31.512C28.5147 28.8453 30.0827 26.52 32.088 24.536C34.0934 22.552 36.44 21.0053 39.128 19.896C41.8374 18.7867 44.76 18.232 47.896 18.232C51.096 18.232 54.04 18.7867 56.728 19.896C59.4374 21.0053 61.784 22.552 63.768 24.536C65.7734 26.52 67.32 28.8453 68.408 31.512C69.5174 34.1573 70.072 37.016 70.072 40.088C70.072 43.1813 69.5387 46.0613 68.472 48.728C67.4054 51.3733 65.88 53.6987 63.896 55.704C61.9334 57.688 59.5974 59.2347 56.888 60.344C54.1787 61.4533 51.1814 62.008 47.896 62.008C44.5254 62.008 41.4747 61.4533 38.744 60.344C36.0347 59.2347 33.7094 57.688 31.768 55.704C29.8267 53.6987 28.3334 51.3733 27.288 48.728C26.2427 46.0613 25.72 43.1813 25.72 40.088Z" fill="#BDFF00"/>
</svg>
